<?xml version="1.0" encoding="UTF-8"?>
<!DOCTYPE svg PUBLIC "-//W3C//DTD SVG 1.1//EN" "http://www.w3.org/Graphics/SVG/1.1/DTD/svg11.dtd">
<!-- Creator: CorelDRAW 2020 (64-Bit Evaluation Version) -->
<svg xmlns="http://www.w3.org/2000/svg" xml:space="preserve" width="8.5in" height="11in" version="1.1" style="shape-rendering:geometricPrecision; text-rendering:geometricPrecision; image-rendering:optimizeQuality; fill-rule:evenodd; clip-rule:evenodd"
viewBox="0 0 8500 11000"
 xmlns:xlink="http://www.w3.org/1999/xlink"
 xmlns:xodm="http://www.corel.com/coreldraw/odm/2003">
 <defs>
  <style type="text/css">
   <![CDATA[
    .str0 {stroke:#2B2A29;stroke-width:6.94;stroke-miterlimit:2.61313}
    .fil0 {fill:none}
   ]]>
  </style>
 </defs>
 <g id="Layer_x0020_1">
  <metadata id="CorelCorpID_0Corel-Layer"/>
  <polygon class="fil0 str0" points="5457.62,4351.65 5664.34,4345.16 5749.8,4346.3 5862.29,4347.34 5962.3,4346.96 6060.59,4344.39 6158.83,4343.16 6222.64,4341.68 6283,4338.98 6341.49,4335.57 6399.46,4331.15 6451.65,4326.24 6510.14,4319.64 6560.09,4313.09 6610.55,4305.76 6658.26,4298.1 6696.98,4291.3 6729.43,4285.14 6777.06,4275.28 6831.72,4262.63 6888.88,4247.68 6942.9,4231.7 6993.9,4214.78 7044.61,4195.97 7095.52,4174.85 7138.01,4155.33 7185.7,4131.13 7234.02,4103.87 7270.88,4081.06 7315.62,4050.59 7348.14,4025.85 7394.57,3983.89 7443.54,3927.4 7472.61,3884.06 7494.7,3842.39 7516.29,3786.61 7531.05,3721.71 7535.41,3674.65 7538.98,3607.46 7526.1,3541.8 7507.26,3477.47 7488.91,3434.46 7452.13,3363.87 7435.53,3340.5 7378.8,3271.22 7334.81,3224.96 7281.93,3175.68 7208.76,3116.1 7134.89,3063.64 7096.97,3039.12 7029.41,2998.81 6966.29,2964.52 6886.96,2925.31 6802.81,2887.75 6714.25,2852.05 6635.04,2823.01 6562.06,2798.39 6405.86,2751.73 6240.43,2710.01 6058.89,2671.97 5910.17,2646.13 5811.17,2631.37 5719.2,2619.32 5625.1,2608.62 5552.36,2601.47 5476.26,2591.73 5315.42,2591.96 4870.62,2592.58 4126.74,2593.61 2963.71,2602.81 2697.72,2620.36 2560.35,2638.97 2433.59,2659.28 2305.99,2683.3 2215.39,2702.63 2129.37,2722.65 2032.07,2747.03 1939.88,2772.55 1844.95,2802.23 1751.69,2834.9 1654.8,2872.81 1572.47,2908.53 1508.68,2938.69 1440.13,2973.83 1365.68,3015.69 1296.33,3058.76 1242.99,3095.09 1180.2,3142.22 1105.19,3206.5 1042.48,3269.46 1011.37,3305.05 976.32,3350.7 948.59,3393.2 933.01,3420.6 912.71,3462.05 899.16,3495.37 889.33,3524.38 881.38,3553.14 875.07,3582.8 870.17,3617.09 867.83,3652.58 868.5,3690.47 872.39,3727.65 879.21,3762.93 888.32,3795.35 900.15,3827.33 917.49,3864.15 939.83,3902.05 958.13,3928.24 977.61,3952.83 998.23,3976.1 1022.06,4000.28 1040.57,4017.45 1075.33,4046.66 1113.7,4075.23 1159.41,4105.36 1207.5,4133.4 1267.93,4164.37 1326.33,4190.61 1395.43,4217.7 1446.34,4235.34 1488.44,4248.64 1537.63,4262.84 1576.54,4273.11 1630.77,4286.12 1686.64,4298.04 1733.75,4307 1795,4317.3 1850.94,4325.46 1901.47,4331.89 1954.7,4337.76 2009.97,4342.94 2063.5,4347.14 2121.84,4349.8 2170.78,4350.89 2206.16,4351.69 2253.08,4353.45 2292.95,4356.38 2331.14,4358.62 2370.72,4358.59 2408.22,4358.56 2461.35,4358.51 2514.47,4358.46 2587.39,4358.4 2655.1,4358.35 2726.97,4358.28 2800.93,4358.22 2896.77,4358.14 2961.35,4358.08 3056.14,4358 3123.33,4357.94 3235.92,4357.85 3315.09,4357.78 3403.63,4357.7 3470.3,4357.65 3534.36,4357.59 3571.34,4357.56 3610.92,4357.52 3649.46,4357.49 3700.5,4357.45 3741.13,4357.41 3795.29,4357.37 3870.3,4357.3 3917.17,4357.26 3968.22,4357.22 4003.63,4357.19 4310.13,4356.92 4441.37,4356.81 4564.29,4356.31 4691.43,4355.36 4775.07,4354.64 4853.93,4353.99 4954.99,4353.31 5010.19,4353.05 5063.31,4352.91 5121.65,4352.91 5236.47,4353.46 5309.91,4351.57 5365.63,4351.3 5418.72,4351.16 "/>
 </g>
</svg>
