<?xml version="1.0" encoding="UTF-8"?>
<!DOCTYPE svg PUBLIC "-//W3C//DTD SVG 1.1//EN" "http://www.w3.org/Graphics/SVG/1.1/DTD/svg11.dtd">
<!-- Creator: CorelDRAW 2020 (64-Bit Evaluation Version) -->
<svg xmlns="http://www.w3.org/2000/svg" xml:space="preserve" width="8.5in" height="11in" version="1.1" style="shape-rendering:geometricPrecision; text-rendering:geometricPrecision; image-rendering:optimizeQuality; fill-rule:evenodd; clip-rule:evenodd"
viewBox="0 0 8500 11000"
 xmlns:xlink="http://www.w3.org/1999/xlink"
 xmlns:xodm="http://www.corel.com/coreldraw/odm/2003">
 <defs>
  <style type="text/css">
   <![CDATA[
    .str0 {stroke:#2B2A29;stroke-width:6.94;stroke-miterlimit:2.61313}
    .fil0 {fill:none}
   ]]>
  </style>
 </defs>
 <g id="Layer_x0020_1">
  <metadata id="CorelCorpID_0Corel-Layer"/>
  <polygon class="fil0 str0" points="5415.8,3394.79 5638.52,3394.17 5749.18,3394.3 5870.78,3394.24 5945.78,3394.21 6005.39,3394.18 6098.56,3388.11 6179.8,3384.85 6250.56,3375.89 6310.96,3368.41 6358.71,3362.19 6421.82,3351.91 6525.36,3331.15 6612.66,3309.26 6670.29,3292.63 6725.04,3272.91 6784.12,3249.9 6852.91,3217.63 6933.15,3171.16 6982.14,3135.75 7026.67,3093.98 7069.45,3046.04 7112.39,2965.9 7127.93,2901.16 7124.81,2816.08 7117.39,2770.04 7074.8,2667.88 7042.38,2618.36 6992.93,2553.52 6931.73,2491.21 6878.54,2446.36 6814.57,2396.92 6741.33,2346.04 6657.67,2294.83 6566.27,2246.22 6482.31,2207.22 6403.37,2174.57 6304.96,2138.19 6196.08,2102.58 6112.11,2078.24 6009.59,2052.01 5937.62,2035.77 5830.01,2014.68 5736.14,1998.76 5658.46,1988.51 5575.54,1978.65 5506.52,1970.68 5438.44,1963.69 5349.57,1965.39 5237.19,1966.84 5124.67,1967.61 4991.35,1968.17 4878.86,1968.47 4774.69,1968.65 4641.36,1968.79 4516.36,1968.84 4420.52,1968.84 4262.19,1968.78 4095.53,1968.66 3487.18,1967.88 2897.2,1966.94 2797.68,1979.03 2657.53,1992.88 2514.09,2015.59 2405.24,2036.57 2303.76,2059.35 2176.06,2093.07 2084.27,2121.28 1985.43,2155.89 1863.78,2205.49 1766.8,2251.48 1686.58,2294.61 1606.74,2342.86 1534.39,2391.93 1466.3,2443.52 1413.12,2486.51 1349.72,2549.85 1297.47,2617.59 1264.92,2671.31 1234.88,2739.09 1218.95,2798.1 1214.55,2892.07 1224.65,2945.76 1246.76,3003.21 1269.37,3042.21 1296.74,3069.51 1321.29,3104.64 1352.37,3130.29 1387.89,3160.32 1445.01,3194.84 1489.98,3222.12 1515.45,3231.54 1589.56,3264.6 1630.85,3278.03 1691.35,3299.07 1735.02,3310.13 1780.11,3321.83 1850.83,3338 1887.89,3345.51 1973.56,3360.61 2015.56,3366.96 2062.04,3373.24 2103.72,3379.26 2182.67,3387.03 2237.63,3391.23 2300.5,3393.2 2364.42,3394.17 2433.27,3394.93 2478.35,3394.18 2549.94,3394.91 2633.27,3394.9 2687.99,3394.18 2741.61,3394.88 2829.11,3394.87 2937.44,3394.85 3014.52,3394.19 3083.28,3394.83 3183.28,3394.81 3270.78,3394.8 3379.11,3394.79 3487.44,3394.77 3595.78,3394.76 3724.94,3394.74 3829.11,3394.72 3962.44,3394.7 4045.78,3394.69 4187.44,3394.67 4320.78,3394.65 4474.94,3394.62 4641.6,3394.25 4733.26,3393.74 4865.59,3392.59 5024.93,3392.13 5108.28,3392 5208.3,3392.26 5313.4,3392.88 "/>
 </g>
</svg>
