<?xml version="1.0" encoding="UTF-8"?>
<!DOCTYPE svg PUBLIC "-//W3C//DTD SVG 1.1//EN" "http://www.w3.org/Graphics/SVG/1.1/DTD/svg11.dtd">
<!-- Creator: CorelDRAW 2020 (64-Bit Evaluation Version) -->
<svg xmlns="http://www.w3.org/2000/svg" xml:space="preserve" width="8.5in" height="11in" version="1.1" style="shape-rendering:geometricPrecision; text-rendering:geometricPrecision; image-rendering:optimizeQuality; fill-rule:evenodd; clip-rule:evenodd"
viewBox="0 0 8500 11000"
 xmlns:xlink="http://www.w3.org/1999/xlink"
 xmlns:xodm="http://www.corel.com/coreldraw/odm/2003">
 <defs>
  <style type="text/css">
   <![CDATA[
    .fil0 {fill:#939495}
   ]]>
  </style>
 </defs>
 <g id="Layer_x0020_1">
  <metadata id="CorelCorpID_0Corel-Layer"/>
  <path class="fil0" d="M4020.52 4548.59c-0.93,0.93 2.25,2.69 2.54,3.04l-2.54 -3.04zm25.91 15.07c5.24,-19.99 11.44,-17.51 35.42,-17.92l342.07 0.52c317.26,-1.01 877.55,-16.06 1145.26,32.09 341.81,61.48 826.6,246.83 1018.4,557.21 147.41,238.54 -46.79,377.89 -257,436.94 -224.96,63.19 -491.78,50.75 -724.49,50.77 -66.65,0.01 -134.38,1.14 -200.88,0.14 -15.68,-0.24 -32.14,-3.44 -43.17,-3.4l-130.1 3.28c-131.7,-1.31 -264.1,-0.11 -395.89,-0.12l-2369.77 0.09c-72.73,-0.09 -227.64,2.92 -295.29,-2.7 -21.59,-1.8 -57.66,1.4 -86.77,-0.26 -112.93,-6.45 -235.5,-19.35 -343.6,-52.02 -207.06,-62.57 -388.2,-205.79 -239.53,-437.96 201.28,-314.32 670.49,-492.48 1022.53,-553.67 248.25,-43.15 496.08,-31.13 750.67,-31.04l737.39 0.06c20.99,1.89 14.44,1.3 34.76,18zm10.67 -11.04c-0,-0.92 -1.29,-2.57 -1.93,-1.93l1.93 1.93zm-36.54 -36.54c-0.81,0.8 2.18,2.18 2.42,2.41l-2.42 -2.41zm1269.46 1297.74c-298.81,8.31 -609.37,0.49 -909.48,0.49l-1822.07 0.01c-299.63,0 -542.31,5.49 -838.55,-57.29 -205.29,-43.52 -482.6,-134.5 -584.9,-324.24 -62.01,-115 -33.21,-244.4 34.7,-351.59 166.78,-263.28 551.67,-438.16 837.73,-527.5 160.32,-50.06 620.29,-152.13 766.84,-136.54l1806.89 -2.92c151.84,0.06 303.68,0.01 455.52,0.05 69.57,0.02 160.14,-5.09 227.07,-0.03 25.22,1.9 17.1,7.54 46.12,4.66 22.4,-2.21 27.57,-2.09 50.68,0.19 478.69,47.06 1055.83,172.64 1420.73,507.34 178.46,163.7 302.31,390.4 100.15,595.91 -320.87,326.17 -1089.74,291.97 -1514.46,291.97 0.03,-30.77 0.11,-61.54 0.18,-92.31 0.05,-24.04 -6.44,-63.61 7,-80.27 14,-11.74 412.53,-4.15 492.3,-4.72 92.26,-0.67 33.61,17.41 79.63,3.5 68.1,-20.59 628.36,-2.38 698.96,-290.29 47.04,-191.8 -161.46,-391.18 -303.44,-483.58 -295.76,-192.5 -613.75,-298.19 -963.11,-330l-81.63 -12.72c-13.76,-0.21 -15.56,5.78 -37.83,6.75l-1186.45 -0.27c-24.5,-3.32 -14.76,-11.56 -32.42,-9.57 -28.58,3.23 21.42,9.87 -82.62,9.76l-1173.53 -4.8c-107.78,22.47 -228.02,28.41 -343.41,52.35 -103.07,21.38 -208.36,52.6 -306.94,89.22 -160.2,59.5 -389.04,175.36 -504.24,288.19 -142.13,139.2 -297.91,332.68 -110.85,516 170.43,167.02 558.25,149.18 625.37,167.56 51.7,14.16 -12.59,-2.79 83.64,-2.09 498.11,3.62 3043.53,-8.91 3057.32,4.84 12.67,22.13 5.06,137.98 5.09,171.94zm-1233.91 -1295.22c-0.01,-1.31 -2.09,-3.45 -3.02,-2.52l4.26 3.56c0.07,0.06 -1.24,-0.5 -1.24,-1.04zm1232.78 1309.13l1.23 190.02c-346.91,6.33 -698.67,0.32 -1045.16,0.32 -670.98,0 -1357.85,-4.7 -2028.47,0.22 -19.12,0.14 -43.75,-7.57 -57.87,-6.16 -253.27,25.12 -686.24,-49.57 -908.12,-126.83 -135.96,-47.35 -229.24,-100.4 -339.78,-180.59 -93.02,-67.48 -181.58,-204.7 -193.39,-329.98 -25.13,-266.68 214.87,-499.67 420.07,-628.91 359.07,-226.13 752.46,-335.17 1166.42,-405.64 92.35,-15.72 393.41,-63.15 470.59,-53.76 38.63,4.7 16.07,-1.37 50.04,-3.93l2293.59 0.63c43.48,0 87.05,-0.33 130.5,-0.22 26.62,0.07 36.35,7.46 52.47,6.81 23.94,-0.98 30.66,-4.1 59.76,-1.2 622.89,62.24 1484.45,220.2 1890.96,730.89 185.53,233.07 150.52,523.95 -102.87,705.1 -230.45,164.75 -501.79,229.07 -779.64,265.76 -79.19,10.45 -159.48,17.69 -239.25,21.91 -30.8,1.63 -157.09,8.33 -183.74,2.67 -35.63,-7.58 -14.6,1.91 -52.48,3.46 -168.73,6.9 -354.72,-0.22 -525.41,-0.22l-1.3 -190.69 510.44 -0.15c26.8,-0.14 34.3,5.12 50.25,6.53l304.07 -38.47c118.56,-17.65 254.91,-47.12 366.34,-89.21 212.15,-80.13 463.22,-230.33 390.39,-502.87 -26.69,-99.88 -106.42,-211.24 -183.56,-278.8 -178.74,-156.54 -357.33,-254.42 -580.81,-336.68 -240.04,-88.35 -490.01,-143.89 -744.2,-172.45 -34.06,-3.83 -179.61,-22.32 -200.52,-19.15 -65.08,9.87 -2044.28,3.31 -2401.03,3.83 -64.87,0.09 -74.15,-8.74 -106.52,-0.69 -44.84,11.15 -152.46,15.36 -206.65,21.74 -66.07,7.78 -132.2,18.63 -197.54,30.56 -376.89,68.85 -753.43,195.82 -1049.78,441.82 -22.59,18.76 -40.67,31.07 -61.59,52.47 -125.83,128.7 -224.63,310.94 -136.42,489.55 140.15,283.76 688,367.3 984.2,387.72 23.43,1.62 27.64,2.48 47.65,8.21 23.81,6.82 14.99,-1.61 43.6,-4l2179.74 0.06c302.91,0 611.59,-5.87 913.78,0.33zm-0.73 460.42c-32.48,12.28 -2658.55,4.44 -3027.94,4.5l-105.82 -3.96c-13.62,1.57 -17.81,3.65 -34.93,3.85 -433.08,5.06 -1015.92,-90.05 -1376.55,-289.73 -199.64,-110.54 -368.41,-251.3 -447.59,-462.53 -147.66,-393.9 242.33,-744.04 542.82,-909.37 296.66,-163.24 550.12,-238.51 887.53,-326.55 158.16,-41.27 349.62,-73.37 512.25,-94.99 88.24,-11.73 478.72,-66.35 538.52,-53.78 35.32,7.42 17.07,-4.07 58.2,-4.85 24.97,-0.47 51.17,0.3 76.31,0.32l2272.16 0.83c24.08,0 52.65,-1.45 76.12,-0.24 25.44,1.32 15.82,3.76 29.82,6.65 27.06,5.59 6.15,0.54 30.24,-2.35 30.17,-3.61 106.46,6.33 140.86,9.61 283.67,27.09 513.57,57.97 795.29,116.67 491.3,102.38 1335.33,369.61 1529.38,892.18 111.81,301.11 -46.47,542.93 -268.7,716.81 -263.24,205.96 -660.28,314.61 -993.98,361.39 -117.97,16.54 -463.94,51.35 -568.72,38.5 -22.71,-2.78 -6.6,-5.24 -30.16,-2.4 -84.31,10.13 -535.76,6.49 -556.6,-1.26l0.12 -256.67c119.24,0 438.54,-5.89 532.39,0.11 49.43,3.16 2.98,6.17 59.33,0.2 19.69,-2.08 44.81,-1.78 65.1,-2.35 373.86,-10.62 849.52,-74.37 1141.59,-298.62 236.83,-181.84 301.13,-449.74 103.48,-715.72 -374.3,-503.71 -1297.05,-686.82 -1896.13,-740.21 -26.11,-2.32 -37.89,-2.8 -63.05,-8.56l-2290.08 3.19c-46.15,0.02 -218.74,-6.87 -247.71,-0.17 -60.27,13.94 -172.3,17.07 -240.75,25.61 -238.83,29.78 -430.24,65.66 -665.65,126.67 -351.43,91.08 -784.59,274.31 -1020.7,558.02 -86.92,104.44 -151.72,240.85 -142.87,385.42 16.98,277.58 293,442.11 526.93,527.23 211.55,76.98 442.27,113.33 668.08,129.44 76.53,5.46 178.12,1.79 248.72,11.5l2094.09 -1.8c346.52,0 705.72,-9.25 1050.78,0.54l-2.17 256.85zm-2507.41 -2149.77c-37.42,10.9 -222.3,18.85 -277.7,24.76 -90.45,9.64 -180.68,20.91 -270.76,33.74 -177.05,25.22 -342.31,58.09 -516.63,96.24 -481.53,105.41 -1375.45,423.73 -1459.42,994.36 -27.05,183.82 36.88,321.06 143.23,462.43 73.11,97.19 233.88,214.34 343.82,268.96 308.38,153.17 619.44,230.63 962.53,263.48 95.26,9.12 187.25,16.39 282.99,19.43 41.02,1.3 113.89,-1.5 150.37,4.26 52.98,8.38 14.13,2.11 56.33,-0.82 23.99,-1.67 56.04,0.07 80.97,0.08 968.88,0.13 1937.77,0.13 2906.65,0 63.14,-0.01 47.96,-3.86 106.78,4.73 25.05,3.66 6.51,-0.73 30.83,-4.1 35.98,-4.98 18.56,10.06 56.53,2.12 22.57,-4.72 47.84,-2.77 71.57,-2.75 104.69,0.07 388.94,-6.6 454.68,0.28 50.43,5.28 3.79,5.93 55.94,-0.13l221.39 -7.39c415.28,-25.59 859.68,-98.9 1221.74,-313.93 128.67,-76.42 245.28,-170.87 323.87,-289.62 312.09,-471.53 -102.87,-891.41 -517.77,-1103.81 -449.65,-230.19 -935.76,-339.72 -1433.38,-405.92 -120.39,-16.02 -290.55,-35.27 -413.34,-42.74 -22.07,-1.35 -47.13,-7.95 -64.59,-8.41 -20.97,-0.55 -51.78,3.2 -76.3,3.14l-2369.83 1.02c-12.93,0.06 -24.82,0.22 -37.66,-1.01 -27.14,-2.6 -6.76,-6.01 -32.84,1.59z"/>
 </g>
</svg>
